CodaCaption-Bold.ufo
<glyph name="asterisk" format="1">
  <advance width="1256"/>
  <unicode hex="002A"/>
  <outline>
    <contour>
      <point x="434" y="524" type="curve" smooth="yes"/>
      <point x="536" y="524"/>
      <point x="555" y="673"/>
      <point x="627" y="936" type="curve"/>
      <point x="661" y="801"/>
      <point x="698" y="636"/>
      <point x="747" y="567" type="curve" smooth="yes"/>
      <point x="768.938" y="535.09"/>
      <point x="797.395" y="521.963"/>
      <point x="825.614" y="521.963" type="curve" smooth="yes"/>
      <point x="882.288" y="521.963"/>
      <point x="938" y="574.916"/>
      <point x="938" y="635" type="curve"/>
      <point x="938" y="686"/>
      <point x="836" y="796"/>
      <point x="678" y="963" type="curve"/>
      <point x="778" y="934"/>
      <point x="937" y="881"/>
      <point x="1014" y="881" type="curve" smooth="yes"/>
      <point x="1089" y="881"/>
      <point x="1125" y="925"/>
      <point x="1125" y="991" type="curve" smooth="yes"/>
      <point x="1125" y="1056"/>
      <point x="1088" y="1102"/>
      <point x="1016" y="1102" type="curve" smooth="yes"/>
      <point x="940" y="1102"/>
      <point x="843" y="1066"/>
      <point x="678" y="1017" type="curve"/>
      <point x="863" y="1209"/>
      <point x="929" y="1290"/>
      <point x="929" y="1352" type="curve" smooth="yes"/>
      <point x="929" y="1407.31"/>
      <point x="873.885" y="1451.72"/>
      <point x="824.991" y="1451.72" type="curve" smooth="yes"/>
      <point x="809.356" y="1451.72"/>
      <point x="794.357" y="1447.18"/>
      <point x="782" y="1437" type="curve"/>
      <point x="685" y="1415"/>
      <point x="648" y="1120"/>
      <point x="627" y="1042" type="curve"/>
      <point x="587" y="1215"/>
      <point x="543" y="1415"/>
      <point x="469" y="1437" type="curve"/>
      <point x="454.508" y="1447.22"/>
      <point x="438.322" y="1451.79"/>
      <point x="422.066" y="1451.79" type="curve" smooth="yes"/>
      <point x="369.897" y="1451.79"/>
      <point x="317" y="1404.71"/>
      <point x="317" y="1346" type="curve" smooth="yes"/>
      <point x="317" y="1296"/>
      <point x="415" y="1188"/>
      <point x="578" y="1017" type="curve"/>
      <point x="482" y="1044"/>
      <point x="313" y="1102"/>
      <point x="237" y="1102" type="curve" smooth="yes"/>
      <point x="165" y="1102"/>
      <point x="128" y="1056"/>
      <point x="128" y="991" type="curve" smooth="yes"/>
      <point x="128" y="925"/>
      <point x="164" y="881"/>
      <point x="238" y="881" type="curve" smooth="yes"/>
      <point x="311" y="881"/>
      <point x="448" y="925"/>
      <point x="578" y="963" type="curve"/>
      <point x="437" y="816"/>
      <point x="324" y="707"/>
      <point x="324" y="625" type="curve" smooth="yes"/>
      <point x="324" y="574"/>
      <point x="382" y="524"/>
    </contour>
  </outline>
</glyph>
<glyph name="plus" format="1">
  <advance width="1200"/>
  <unicode hex="002B"/>
  <outline>
    <contour>
      <point x="477" y="180" type="line"/>
      <point x="722" y="180" type="line"/>
      <point x="722" y="548" type="line"/>
      <point x="1049" y="548" type="line"/>
      <point x="1049" y="774" type="line"/>
      <point x="722" y="774" type="line"/>
      <point x="722" y="1143" type="line"/>
      <point x="477" y="1143" type="line"/>
      <point x="477" y="774" type="line"/>
      <point x="149" y="774" type="line"/>
      <point x="149" y="548" type="line"/>
      <point x="477" y="548" type="line"/>
    </contour>
  </outline>
</glyph>
<glyph name="slash" format="1">
  <advance width="926"/>
  <unicode hex="002F"/>
  <outline>
    <contour>
      <point x="152" y="-17" type="line"/>
      <point x="414" y="-17" type="line"/>
      <point x="782" y="1544" type="line"/>
      <point x="514" y="1544" type="line"/>
    </contour>
  </outline>
</glyph>
<glyph name="two" format="1">
  <advance width="1375"/>
  <unicode hex="0032"/>
  <outline>
    <contour>
      <point x="184" y="0" type="line"/>
      <point x="1164" y="0" type="line"/>
      <point x="1164" y="200" type="line"/>
      <point x="495" y="200" type="line"/>
      <point x="495" y="374"/>
      <point x="569" y="418"/>
      <point x="740" y="519" type="curve" smooth="yes"/>
      <point x="1001" y="669"/>
      <point x="1208" y="752"/>
      <point x="1208" y="1103" type="curve" smooth="yes"/>
      <point x="1208" y="1446"/>
      <point x="1056" y="1547"/>
      <point x="693" y="1547" type="curve" smooth="yes"/>
      <point x="362" y="1547"/>
      <point x="184" y="1460"/>
      <point x="184" y="1162" type="curve"/>
      <point x="185" y="1123" type="line"/>
      <point x="483" y="1101" type="line"/>
      <point x="489" y="1170"/>
      <point x="489" y="1311"/>
      <point x="517" y="1333" type="curve" smooth="yes"/>
      <point x="547" y="1355"/>
      <point x="632" y="1362"/>
      <point x="699" y="1362" type="curve" smooth="yes"/>
      <point x="775" y="1362"/>
      <point x="844" y="1349"/>
      <point x="864" y="1321" type="curve" smooth="yes"/>
      <point x="885" y="1292"/>
      <point x="894" y="1153"/>
      <point x="894" y="1091" type="curve" smooth="yes"/>
      <point x="894" y="871"/>
      <point x="783" y="849"/>
      <point x="583" y="729" type="curve"/>
      <point x="349" y="599"/>
      <point x="184" y="500"/>
      <point x="184" y="156" type="curve" smooth="yes"/>
    </contour>
  </outline>
</glyph>
<glyph name="nine" format="1">
  <advance width="1375"/>
  <unicode hex="0039"/>
  <outline>
    <contour>
      <point x="690" y="723" type="curve" smooth="yes"/>
      <point x="492" y="723"/>
      <point x="448" y="752"/>
      <point x="448" y="895" type="curve" smooth="yes"/>
      <point x="448" y="1226" type="line" smooth="yes"/>
      <point x="448" y="1327"/>
      <point x="498" y="1364"/>
      <point x="690" y="1364" type="curve" smooth="yes"/>
      <point x="881" y="1364"/>
      <point x="920" y="1312"/>
      <point x="921" y="1202" type="curve" smooth="yes"/>
      <point x="922" y="899" type="line" smooth="yes"/>
      <point x="922.018" y="896.919"/>
      <point x="922.027" y="894.858"/>
      <point x="922.027" y="892.814" type="curve" smooth="yes"/>
      <point x="922.027" y="778.973"/>
      <point x="893.35" y="723"/>
    </contour>
    <contour>
      <point x="700" y="-21" type="curve" smooth="yes"/>
      <point x="1164" y="-21"/>
      <point x="1241" y="136"/>
      <point x="1241" y="628" type="curve" smooth="yes"/>
      <point x="1241" y="940" type="line" smooth="yes"/>
      <point x="1241" y="1436"/>
      <point x="1159" y="1547"/>
      <point x="670" y="1547" type="curve" smooth="yes"/>
      <point x="282" y="1547"/>
      <point x="135" y="1455"/>
      <point x="135" y="1029" type="curve" smooth="yes"/>
      <point x="135" y="640"/>
      <point x="260" y="528"/>
      <point x="634" y="528" type="curve" smooth="yes"/>
      <point x="758" y="528"/>
      <point x="886" y="552"/>
      <point x="922" y="597" type="curve"/>
      <point x="921" y="302" type="line" smooth="yes"/>
      <point x="920" y="194"/>
      <point x="853" y="160"/>
      <point x="698" y="160" type="curve" smooth="yes"/>
      <point x="622" y="160"/>
      <point x="517" y="163"/>
      <point x="497" y="181" type="curve" smooth="yes"/>
      <point x="478" y="200"/>
      <point x="477" y="298"/>
      <point x="477" y="362" type="curve"/>
      <point x="182" y="349" type="line"/>
      <point x="181" y="256" type="line" smooth="yes"/>
      <point x="180.97" y="254.121"/>
      <point x="180.955" y="252.254"/>
      <point x="180.955" y="250.4" type="curve" smooth="yes"/>
      <point x="180.955" y="6.57894"/>
      <point x="440.97" y="-21"/>
    </contour>
  </outline>
</glyph>
<glyph name="less" format="1">
  <advance width="1115"/>
  <unicode hex="003C"/>
  <outline>
    <contour>
      <point x="926" y="152" type="line"/>
      <point x="926" y="477" type="line"/>
      <point x="378" y="747" type="line"/>
      <point x="926" y="1009" type="line"/>
      <point x="926" y="1339" type="line"/>
      <point x="167" y="901" type="line"/>
      <point x="167" y="580" type="line"/>
    </contour>
  </outline>
</glyph>
<glyph name="at" format="1">
  <advance width="2154"/>
  <unicode hex="0040"/>
  <outline>
    <contour>
      <point x="1108" y="270" type="curve" smooth="yes"/>
      <point x="958" y="270"/>
      <point x="924" y="298"/>
      <point x="924" y="374" type="curve" smooth="yes"/>
      <point x="924" y="511"/>
      <point x="952" y="636"/>
      <point x="1057" y="637" type="curve" smooth="yes"/>
      <point x="1274" y="638" type="line"/>
      <point x="1274" y="413" type="line"/>
      <point x="1273" y="340"/>
      <point x="1210" y="270"/>
    </contour>
    <contour>
      <point x="661.967" y="430.796" type="curve" smooth="yes"/>
      <point x="661.967" y="198.769"/>
      <point x="773.252" y="124"/>
      <point x="1022" y="124" type="curve" smooth="yes"/>
      <point x="1212" y="124"/>
      <point x="1277" y="186"/>
      <point x="1318" y="277" type="curve"/>
      <point x="1350" y="188"/>
      <point x="1430" y="132"/>
      <point x="1545" y="131" type="curve" smooth="yes"/>
      <point x="1932" y="131"/>
      <point x="1987" y="334"/>
      <point x="1987" y="736" type="curve" smooth="yes"/>
      <point x="1987" y="1371"/>
      <point x="1776" y="1601"/>
      <point x="1106" y="1601" type="curve" smooth="yes"/>
      <point x="459" y="1601"/>
      <point x="179" y="1336"/>
      <point x="179" y="649" type="curve" smooth="yes"/>
      <point x="179" y="-69"/>
      <point x="504" y="-290"/>
      <point x="1109" y="-290" type="curve" smooth="yes"/>
      <point x="1337" y="-290"/>
      <point x="1542" y="-250"/>
      <point x="1700" y="-175" type="curve"/>
      <point x="1650" y="-29" type="line"/>
      <point x="1459" y="-104"/>
      <point x="1243" y="-128"/>
      <point x="1130" y="-128" type="curve" smooth="yes"/>
      <point x="559" y="-128"/>
      <point x="398" y="105"/>
      <point x="398" y="670" type="curve" smooth="yes"/>
      <point x="398" y="1185"/>
      <point x="563" y="1429"/>
      <point x="1120" y="1429" type="curve" smooth="yes"/>
      <point x="1635" y="1429"/>
      <point x="1765" y="1244"/>
      <point x="1765" y="725" type="curve" smooth="yes"/>
      <point x="1765" y="516"/>
      <point x="1756" y="321"/>
      <point x="1716" y="292" type="curve" smooth="yes"/>
      <point x="1692" y="277"/>
      <point x="1590" y="276"/>
      <point x="1529" y="276" type="curve"/>
      <point x="1529" y="887" type="line" smooth="yes"/>
      <point x="1529" y="1117"/>
      <point x="1414" y="1212"/>
      <point x="1132" y="1212" type="curve" smooth="yes"/>
      <point x="871.777" y="1212"/>
      <point x="704.996" y="1183.17"/>
      <point x="704.996" y="971.898" type="curve" smooth="yes"/>
      <point x="704.996" y="951.876"/>
      <point x="707.816" y="908.922"/>
      <point x="712" y="888" type="curve"/>
      <point x="958" y="888" type="line"/>
      <point x="956.947" y="904.325"/>
      <point x="954.23" y="936.456"/>
      <point x="954.23" y="966.139" type="curve" smooth="yes"/>
      <point x="954.23" y="992.825"/>
      <point x="956.426" y="1017.53"/>
      <point x="964" y="1027" type="curve" smooth="yes"/>
      <point x="984" y="1049"/>
      <point x="1041" y="1053"/>
      <point x="1117" y="1053" type="curve" smooth="yes"/>
      <point x="1231" y="1053"/>
      <point x="1275" y="1043"/>
      <point x="1275" y="961" type="curve" smooth="yes"/>
      <point x="1275" y="737" type="line"/>
      <point x="1176" y="754"/>
      <point x="1053" y="760"/>
      <point x="987" y="760" type="curve" smooth="yes"/>
      <point x="752.568" y="759.011"/>
      <point x="661.967" y="636.694"/>
    </contour>
  </outline>
</glyph>
<glyph name="C" format="1">
  <advance width="1479"/>
  <unicode hex="0043"/>
  <outline>
    <contour>
      <point x="772" y="0" type="move" name="bot"/>
    </contour>
    <contour>
      <point x="772" y="1527" type="move" name="top"/>
    </contour>
    <contour>
      <point x="159" y="1115" type="curve" smooth="yes"/>
      <point x="155" y="1057"/>
      <point x="153" y="847"/>
      <point x="153" y="766" type="curve" smooth="yes"/>
      <point x="153" y="689"/>
      <point x="154" y="478"/>
      <point x="159" y="421" type="curve" smooth="yes"/>
      <point x="178" y="65"/>
      <point x="403" y="-21"/>
      <point x="805" y="-21" type="curve" smooth="yes"/>
      <point x="1124" y="-21"/>
      <point x="1340" y="37"/>
      <point x="1355" y="353" type="curve"/>
      <point x="1361" y="506" type="line"/>
      <point x="1037" y="521" type="line"/>
      <point x="1030" y="439"/>
      <point x="1030" y="254"/>
      <point x="1004" y="221" type="curve" smooth="yes"/>
      <point x="979" y="188"/>
      <point x="897" y="175"/>
      <point x="785" y="175" type="curve" smooth="yes"/>
      <point x="591" y="175"/>
      <point x="508" y="210"/>
      <point x="503" y="278" type="curve" smooth="yes"/>
      <point x="498" y="358"/>
      <point x="497" y="629"/>
      <point x="497" y="712" type="curve" smooth="yes"/>
      <point x="497" y="831"/>
      <point x="498" y="1134"/>
      <point x="503" y="1248" type="curve" smooth="yes"/>
      <point x="508" y="1342"/>
      <point x="621" y="1350"/>
      <point x="784" y="1350" type="curve" smooth="yes"/>
      <point x="875" y="1350"/>
      <point x="955" y="1349"/>
      <point x="985" y="1323" type="curve" smooth="yes"/>
      <point x="1015" y="1297"/>
      <point x="1026" y="1114"/>
      <point x="1035" y="1012" type="curve"/>
      <point x="1361" y="1036" type="line"/>
      <point x="1355" y="1171" type="line"/>
      <point x="1335" y="1499"/>
      <point x="1110" y="1547"/>
      <point x="793" y="1547" type="curve" smooth="yes"/>
      <point x="390" y="1547"/>
      <point x="177" y="1485"/>
    </contour>
  </outline>
</glyph>
<glyph name="F" format="1">
  <advance width="1125"/>
  <unicode hex="0046"/>
  <outline>
    <contour>
      <point x="577" y="0" type="move" name="bot"/>
    </contour>
    <contour>
      <point x="609" y="1527" type="move" name="top"/>
    </contour>
    <contour>
      <point x="189" y="1527" type="line"/>
      <point x="189" y="0" type="line"/>
      <point x="532" y="0" type="line"/>
      <point x="532" y="694" type="line"/>
      <point x="984" y="694" type="line"/>
      <point x="984" y="886" type="line"/>
      <point x="532" y="886" type="line"/>
      <point x="532" y="1340" type="line"/>
      <point x="1054" y="1340" type="line"/>
      <point x="1038" y="1527" type="line"/>
    </contour>
  </outline>
</glyph>
<glyph name="K" format="1">
  <advance width="1465"/>
  <unicode hex="004B"/>
  <outline>
    <contour>
      <point x="740" y="0" type="move" name="bot"/>
    </contour>
    <contour>
      <point x="740" y="1527" type="move" name="top"/>
    </contour>
    <contour>
      <point x="1010" y="1527" type="line"/>
      <point x="850.078" y="1277.92"/>
      <point x="687.609" y="1031.39"/>
      <point x="530" y="780" type="curve"/>
      <point x="532" y="962" type="line"/>
      <point x="532" y="1527" type="line"/>
      <point x="189" y="1527" type="line"/>
      <point x="189" y="0" type="line"/>
      <point x="532" y="0" type="line"/>
      <point x="532" y="582" type="line"/>
      <point x="603" y="688" type="line"/>
      <point x="1057" y="0" type="line"/>
      <point x="1443" y="0" type="line"/>
      <point x="897" y="801" type="line"/>
      <point x="1384" y="1527" type="line"/>
    </contour>
  </outline>
</glyph>
<glyph name="N" format="1">
  <advance width="1579"/>
  <unicode hex="004E"/>
  <outline>
    <contour>
      <point x="790" y="0" type="move" name="bot"/>
    </contour>
    <contour>
      <point x="803" y="1527" type="move" name="top"/>
    </contour>
    <contour>
      <point x="1119" y="1527" type="line"/>
      <point x="1119" y="485" type="line"/>
      <point x="503" y="1527" type="line"/>
      <point x="189" y="1527" type="line"/>
      <point x="189" y="0" type="line"/>
      <point x="461" y="0" type="line"/>
      <point x="461" y="1014" type="line"/>
      <point x="1064" y="0" type="line"/>
      <point x="1390" y="0" type="line"/>
      <point x="1390" y="1527" type="line"/>
    </contour>
  </outline>
</glyph>
<glyph name="P" format="1">
  <advance width="1437"/>
  <unicode hex="0050"/>
  <outline>
    <contour>
      <point x="727" y="0" type="move" name="bot"/>
    </contour>
    <contour>
      <point x="727" y="1527" type="move" name="top"/>
    </contour>
    <contour>
      <point x="531" y="657" type="line"/>
      <point x="531" y="1348" type="line"/>
      <point x="817" y="1348" type="line" smooth="yes"/>
      <point x="861" y="1348"/>
      <point x="921" y="1342"/>
      <point x="941" y="1327" type="curve" smooth="yes"/>
      <point x="975" y="1300"/>
      <point x="981" y="1116"/>
      <point x="983" y="1008" type="curve" smooth="yes"/>
      <point x="983" y="907"/>
      <point x="983" y="714"/>
      <point x="938" y="682" type="curve" smooth="yes"/>
      <point x="914" y="665"/>
      <point x="847" y="657"/>
      <point x="791" y="657" type="curve" smooth="yes"/>
    </contour>
    <contour>
      <point x="189" y="0" type="line"/>
      <point x="531" y="0" type="line"/>
      <point x="531" y="479" type="line"/>
      <point x="842" y="479" type="line" smooth="yes"/>
      <point x="1110" y="479"/>
      <point x="1321" y="522"/>
      <point x="1326" y="913" type="curve"/>
      <point x="1326" y="1074" type="line" smooth="yes"/>
      <point x="1326" y="1465"/>
      <point x="1144" y="1527"/>
      <point x="804" y="1527" type="curve" smooth="yes"/>
      <point x="189" y="1527" type="line"/>
    </contour>
  </outline>
</glyph>
<glyph name="Q" format="1">
  <advance width="1542"/>
  <unicode hex="0051"/>
  <outline>
    <component base="O"/>
    <contour>
      <point x="796" y="50" type="line"/>
      <point x="1082" y="-383" type="line"/>
      <point x="1291" y="-264" type="line"/>
      <point x="1069" y="89" type="line"/>
    </contour>
  </outline>
</glyph>
<glyph name="bracketright" format="1">
  <advance width="1036"/>
  <unicode hex="005D"/>
  <outline>
    <contour>
      <point x="203" y="1701" type="line"/>
      <point x="203" y="1519" type="line"/>
      <point x="488" y="1519" type="line"/>
      <point x="488" y="-105" type="line"/>
      <point x="203" y="-105" type="line"/>
      <point x="203" y="-288" type="line"/>
      <point x="834" y="-288" type="line"/>
      <point x="834" y="1701" type="line"/>
    </contour>
  </outline>
</glyph>
<glyph name="grave" format="1">
  <advance width="892"/>
  <unicode hex="0060"/>
  <outline>
    <contour>
      <point x="555" y="1168" type="move" name="_top"/>
    </contour>
    <contour>
      <point x="753.826" y="1350.52" type="curve" smooth="yes"/>
      <point x="770.878" y="1350.52"/>
      <point x="784.404" y="1360.67"/>
      <point x="784.404" y="1377" type="curve" smooth="yes"/>
      <point x="784.404" y="1385.33"/>
      <point x="780.47" y="1394.58"/>
      <point x="771" y="1403" type="curve" smooth="yes"/>
      <point x="714" y="1455"/>
      <point x="473" y="1700"/>
      <point x="413" y="1741" type="curve" smooth="yes"/>
      <point x="381" y="1762"/>
      <point x="349" y="1777"/>
      <point x="314" y="1777" type="curve" smooth="yes"/>
      <point x="235" y="1777"/>
      <point x="187" y="1715"/>
      <point x="187" y="1649" type="curve" smooth="yes"/>
      <point x="187" y="1601"/>
      <point x="213" y="1548"/>
      <point x="273" y="1518" type="curve" smooth="yes"/>
      <point x="326" y="1490"/>
      <point x="667" y="1375"/>
      <point x="739" y="1353" type="curve" smooth="yes"/>
      <point x="744.125" y="1351.29"/>
      <point x="749.134" y="1350.52"/>
    </contour>
  </outline>
</glyph>
<glyph name="c" format="1">
  <advance width="1272"/>
  <unicode hex="0063"/>
  <outline>
    <contour>
      <point x="635" y="0" type="move" name="bot"/>
    </contour>
    <contour>
      <point x="625" y="1168" type="move" name="top"/>
    </contour>
    <contour>
      <point x="136" y="737" type="curve" smooth="yes"/>
      <point x="136" y="460" type="line"/>
      <point x="138" y="74"/>
      <point x="283" y="-21"/>
      <point x="655" y="-21" type="curve" smooth="yes"/>
      <point x="967" y="-21"/>
      <point x="1137" y="22"/>
      <point x="1149" y="286" type="curve" smooth="yes"/>
      <point x="1154" y="399" type="line"/>
      <point x="848" y="417" type="line"/>
      <point x="840" y="215" type="line"/>
      <point x="835" y="155"/>
      <point x="783" y="146"/>
      <point x="648" y="146" type="curve" smooth="yes"/>
      <point x="490" y="146"/>
      <point x="458" y="176"/>
      <point x="458" y="354" type="curve" smooth="yes"/>
      <point x="458" y="854" type="line" smooth="yes"/>
      <point x="458" y="987"/>
      <point x="493" y="1022"/>
      <point x="660" y="1022" type="curve" smooth="yes"/>
      <point x="800" y="1022"/>
      <point x="828" y="1000"/>
      <point x="835" y="954" type="curve"/>
      <point x="849" y="756" type="line"/>
      <point x="1154" y="777" type="line"/>
      <point x="1144" y="921" type="line"/>
      <point x="1128" y="1167"/>
      <point x="941" y="1189"/>
      <point x="663" y="1189" type="curve" smooth="yes"/>
      <point x="290" y="1189"/>
      <point x="136" y="1117"/>
    </contour>
  </outline>
</glyph>
<glyph name="h" format="1">
  <advance width="1345"/>
  <unicode hex="0068"/>
  <outline>
    <contour>
      <point x="485" y="1310" type="move" name="mid"/>
    </contour>
    <contour>
      <point x="670" y="584" type="move" name="center"/>
    </contour>
    <contour>
      <point x="671" y="0" type="move" name="bot"/>
    </contour>
    <contour>
      <point x="820" y="1388" type="move" name="top"/>
    </contour>
    <contour>
      <point x="165" y="1565" type="line"/>
      <point x="165" y="0" type="line"/>
      <point x="494" y="0" type="line"/>
      <point x="494" y="955" type="line" smooth="yes"/>
      <point x="494" y="1002"/>
      <point x="608" y="1023"/>
      <point x="673" y="1023" type="curve" smooth="yes"/>
      <point x="832" y="1023"/>
      <point x="864" y="1004"/>
      <point x="864" y="813" type="curve" smooth="yes"/>
      <point x="864" y="0" type="line"/>
      <point x="1192" y="0" type="line"/>
      <point x="1193" y="802" type="line" smooth="yes"/>
      <point x="1193" y="1045"/>
      <point x="1124" y="1189"/>
      <point x="800" y="1189" type="curve" smooth="yes"/>
      <point x="656" y="1189"/>
      <point x="545" y="1152"/>
      <point x="494" y="1075" type="curve"/>
      <point x="494" y="1565" type="line"/>
    </contour>
  </outline>
</glyph>
<glyph name="i" format="1">
  <advance width="662"/>
  <unicode hex="0069"/>
  <outline>
    <component base="dotaccent" xOffset="-38"/>
    <component base="dotlessi" xOffset="-2"/>
    <contour>
      <point x="127" y="0" type="move" name="ogonek"/>
    </contour>
  </outline>
</glyph>
<glyph name="m" format="1">
  <advance width="1966"/>
  <unicode hex="006D"/>
  <outline>
    <contour>
      <point x="987" y="0" type="move" name="bot"/>
    </contour>
    <contour>
      <point x="987" y="1168" type="move" name="top"/>
    </contour>
    <contour>
      <point x="1110" y="1049" type="curve"/>
      <point x="1059" y="1151"/>
      <point x="960" y="1189"/>
      <point x="810" y="1189" type="curve" smooth="yes"/>
      <point x="663" y="1189"/>
      <point x="546" y="1155"/>
      <point x="487" y="1051" type="curve"/>
      <point x="461" y="1168" type="line"/>
      <point x="165" y="1168" type="line"/>
      <point x="165" y="0" type="line"/>
      <point x="490" y="0" type="line"/>
      <point x="491" y="970" type="line" smooth="yes"/>
      <point x="491" y="1017"/>
      <point x="601" y="1030"/>
      <point x="658" y="1030" type="curve" smooth="yes"/>
      <point x="800" y="1030"/>
      <point x="832" y="995"/>
      <point x="832" y="861" type="curve" smooth="yes"/>
      <point x="832" y="0" type="line"/>
      <point x="1155" y="0" type="line"/>
      <point x="1155" y="860" type="line" smooth="yes"/>
      <point x="1155" y="871.429"/>
      <point x="1154.92" y="882.531"/>
      <point x="1154.92" y="893.259" type="curve" smooth="yes"/>
      <point x="1154.92" y="920.082"/>
      <point x="1155.43" y="944.571"/>
      <point x="1159" y="966" type="curve"/>
      <point x="1173" y="1009"/>
      <point x="1243" y="1030"/>
      <point x="1345" y="1030" type="curve" smooth="yes"/>
      <point x="1461" y="1030"/>
      <point x="1492" y="970"/>
      <point x="1492" y="820" type="curve" smooth="yes"/>
      <point x="1492" y="0" type="line"/>
      <point x="1817" y="0" type="line"/>
      <point x="1817" y="768" type="line" smooth="yes"/>
      <point x="1817" y="1088"/>
      <point x="1726" y="1189"/>
      <point x="1437" y="1189" type="curve" smooth="yes"/>
      <point x="1277" y="1189"/>
      <point x="1166" y="1147"/>
    </contour>
  </outline>
</glyph>
<glyph name="n" format="1">
  <advance width="1337"/>
  <unicode hex="006E"/>
  <outline>
    <contour>
      <point x="669" y="0" type="move" name="bot"/>
    </contour>
    <contour>
      <point x="668" y="1168" type="move" name="top"/>
    </contour>
    <contour>
      <point x="486" y="1049" type="curve"/>
      <point x="461" y="1168" type="line"/>
      <point x="165" y="1168" type="line"/>
      <point x="165" y="0" type="line"/>
      <point x="493" y="0" type="line"/>
      <point x="493" y="894" type="line" smooth="yes"/>
      <point x="493" y="987"/>
      <point x="554" y="1023"/>
      <point x="708" y="1023" type="curve" smooth="yes"/>
      <point x="816" y="1023"/>
      <point x="860" y="974"/>
      <point x="860" y="857" type="curve" smooth="yes"/>
      <point x="860" y="0" type="line"/>
      <point x="1188" y="0" type="line"/>
      <point x="1188" y="802" type="line" smooth="yes"/>
      <point x="1188" y="1047"/>
      <point x="1100" y="1188"/>
      <point x="818" y="1189" type="curve" smooth="yes"/>
      <point x="671" y="1189"/>
      <point x="531" y="1154"/>
    </contour>
  </outline>
</glyph>
<glyph name="o" format="1">
  <advance width="1331"/>
  <unicode hex="006F"/>
  <outline>
    <contour>
      <point x="664" y="0" type="move" name="bot"/>
    </contour>
    <contour>
      <point x="761" y="0" type="move" name="ogonek"/>
    </contour>
    <contour>
      <point x="665" y="1168" type="move" name="top"/>
    </contour>
    <contour>
      <point x="666" y="157" type="curve" smooth="yes"/>
      <point x="551" y="157"/>
      <point x="471" y="169"/>
      <point x="471" y="216" type="curve" smooth="yes"/>
      <point x="470" y="961" type="line" smooth="yes"/>
      <point x="470" y="1022"/>
      <point x="588" y="1022"/>
      <point x="665" y="1022" type="curve" smooth="yes"/>
      <point x="743" y="1022"/>
      <point x="860" y="1022"/>
      <point x="860" y="961" type="curve" smooth="yes"/>
      <point x="859" y="216" type="line" smooth="yes"/>
      <point x="859" y="168"/>
      <point x="781" y="157"/>
    </contour>
    <contour>
      <point x="136" y="714" type="curve" smooth="yes"/>
      <point x="136" y="484" type="line" smooth="yes"/>
      <point x="136" y="61"/>
      <point x="272" y="-21"/>
      <point x="666" y="-21" type="curve" smooth="yes"/>
      <point x="1056" y="-21"/>
      <point x="1195" y="57"/>
      <point x="1195" y="484" type="curve" smooth="yes"/>
      <point x="1195" y="714" type="line" smooth="yes"/>
      <point x="1195" y="1125"/>
      <point x="1044" y="1189"/>
      <point x="667" y="1189" type="curve" smooth="yes"/>
      <point x="298" y="1189"/>
      <point x="136" y="1126"/>
    </contour>
  </outline>
</glyph>
<glyph name="q" format="1">
  <advance width="1350"/>
  <unicode hex="0071"/>
  <outline>
    <contour>
      <point x="661" y="146" type="curve" smooth="yes"/>
      <point x="502" y="146"/>
      <point x="469" y="168"/>
      <point x="469" y="339" type="curve" smooth="yes"/>
      <point x="469" y="868" type="line" smooth="yes"/>
      <point x="469" y="952"/>
      <point x="477" y="1023"/>
      <point x="661" y="1023" type="curve" smooth="yes"/>
      <point x="827" y="1023"/>
      <point x="860" y="1002"/>
      <point x="860" y="837" type="curve" smooth="yes"/>
      <point x="860" y="362" type="line" smooth="yes"/>
      <point x="860" y="187"/>
      <point x="803" y="146"/>
    </contour>
    <contour>
      <point x="136" y="709" type="curve" smooth="yes"/>
      <point x="136" y="479" type="line" smooth="yes"/>
      <point x="136" y="126"/>
      <point x="214" y="-21"/>
      <point x="549" y="-21" type="curve" smooth="yes"/>
      <point x="710" y="-21"/>
      <point x="820" y="20"/>
      <point x="857" y="97" type="curve"/>
      <point x="857" y="-385" type="line"/>
      <point x="1185" y="-395" type="line"/>
      <point x="1185" y="1168" type="line"/>
      <point x="897" y="1168" type="line"/>
      <point x="872" y="1050" type="line"/>
      <point x="823" y="1146"/>
      <point x="705" y="1189"/>
      <point x="538" y="1189" type="curve" smooth="yes"/>
      <point x="215" y="1189"/>
      <point x="136" y="1046"/>
    </contour>
  </outline>
</glyph>
<glyph name="s" format="1">
  <advance width="1190"/>
  <unicode hex="0073"/>
  <outline>
    <contour>
      <point x="587" y="0" type="move" name="bot"/>
    </contour>
    <contour>
      <point x="577" y="1168" type="move" name="top"/>
    </contour>
    <contour>
      <point x="621" y="-21" type="curve" smooth="yes"/>
      <point x="958" y="-21"/>
      <point x="1094" y="31"/>
      <point x="1094" y="341" type="curve" smooth="yes"/>
      <point x="1094" y="608"/>
      <point x="1025" y="663"/>
      <point x="738" y="700" type="curve"/>
      <point x="606" y="720" type="line"/>
      <point x="436" y="743"/>
      <point x="429" y="748"/>
      <point x="429" y="856" type="curve" smooth="yes"/>
      <point x="429" y="895"/>
      <point x="431" y="972"/>
      <point x="449" y="987" type="curve" smooth="yes"/>
      <point x="468" y="1003"/>
      <point x="529" y="1009"/>
      <point x="598" y="1009" type="curve" smooth="yes"/>
      <point x="668" y="1009"/>
      <point x="732" y="1008"/>
      <point x="753" y="994" type="curve" smooth="yes"/>
      <point x="775" y="981"/>
      <point x="780" y="908"/>
      <point x="784" y="862" type="curve"/>
      <point x="1053" y="894" type="line"/>
      <point x="1053" y="1170"/>
      <point x="894" y="1189"/>
      <point x="607" y="1189" type="curve" smooth="yes"/>
      <point x="270" y="1189"/>
      <point x="120" y="1135"/>
      <point x="120" y="853" type="curve" smooth="yes"/>
      <point x="120" y="580"/>
      <point x="216" y="541"/>
      <point x="479" y="509" type="curve"/>
      <point x="615" y="489" type="line"/>
      <point x="757" y="472"/>
      <point x="784" y="466"/>
      <point x="784" y="341" type="curve" smooth="yes"/>
      <point x="784" y="301"/>
      <point x="783" y="214"/>
      <point x="765" y="192" type="curve" smooth="yes"/>
      <point x="747" y="170"/>
      <point x="686" y="158"/>
      <point x="616" y="158" type="curve" smooth="yes"/>
      <point x="531" y="158"/>
      <point x="462" y="159"/>
      <point x="440" y="176" type="curve" smooth="yes"/>
      <point x="418" y="193"/>
      <point x="416" y="286"/>
      <point x="410" y="349" type="curve"/>
      <point x="128" y="315" type="line"/>
      <point x="128" y="-5"/>
      <point x="304" y="-21"/>
    </contour>
  </outline>
</glyph>
<glyph name="t" format="1">
  <advance width="925"/>
  <unicode hex="0074"/>
  <outline>
    <contour>
      <point x="445" y="700" type="move" name="mid"/>
    </contour>
    <contour>
      <point x="504" y="0" type="move" name="bot"/>
    </contour>
    <contour>
      <point x="411" y="1272" type="move" name="caron.alt"/>
    </contour>
    <contour>
      <point x="430" y="1370" type="move" name="top"/>
    </contour>
    <contour>
      <point x="258" y="284" type="line" smooth="yes"/>
      <point x="258" y="40.5892"/>
      <point x="380.687" y="-15.0639"/>
      <point x="630.078" y="-15.0639" type="curve" smooth="yes"/>
      <point x="704.747" y="-15.0639"/>
      <point x="779.11" y="-4.78471"/>
      <point x="826" y="0" type="curve"/>
      <point x="829" y="172" type="line"/>
      <point x="792.683" y="168.582"/>
      <point x="760.746" y="166.624"/>
      <point x="732.977" y="166.624" type="curve" smooth="yes"/>
      <point x="630.76" y="166.624"/>
      <point x="585" y="193.15"/>
      <point x="585" y="271" type="curve" smooth="yes"/>
      <point x="585" y="1025" type="line"/>
      <point x="785" y="1025" type="line"/>
      <point x="785" y="1168" type="line"/>
      <point x="585" y="1168" type="line"/>
      <point x="585" y="1498" type="line"/>
      <point x="258" y="1498" type="line"/>
      <point x="258" y="1168" type="line"/>
      <point x="100" y="1168" type="line"/>
      <point x="100" y="1025" type="line"/>
      <point x="258" y="1025" type="line"/>
    </contour>
  </outline>
</glyph>
<glyph name="u" format="1">
  <advance width="1335"/>
  <unicode hex="0075"/>
  <outline>
    <contour>
      <point x="988" y="0" type="move" name="ogonek"/>
    </contour>
    <contour>
      <point x="660" y="1168" type="move" name="top"/>
    </contour>
    <contour>
      <point x="841" y="1168" type="line"/>
      <point x="841" y="317" type="line" smooth="yes"/>
      <point x="841" y="221"/>
      <point x="832" y="144"/>
      <point x="655" y="144" type="curve" smooth="yes"/>
      <point x="488" y="144"/>
      <point x="474" y="182"/>
      <point x="474" y="364" type="curve" smooth="yes"/>
      <point x="474" y="1168" type="line"/>
      <point x="146" y="1168" type="line"/>
      <point x="146" y="416" type="line" smooth="yes"/>
      <point x="146" y="107"/>
      <point x="237" y="-20"/>
      <point x="517" y="-21" type="curve" smooth="yes"/>
      <point x="672" y="-21"/>
      <point x="804" y="29"/>
      <point x="849" y="130" type="curve"/>
      <point x="873" y="-1" type="line"/>
      <point x="1170" y="-1" type="line"/>
      <point x="1170" y="1168" type="line"/>
    </contour>
  </outline>
</glyph>
<glyph name="x" format="1">
  <advance width="1192"/>
  <unicode hex="0078"/>
  <outline>
    <contour>
      <point x="792" y="0" type="line"/>
      <point x="1125" y="0" type="line"/>
      <point x="763" y="590" type="line"/>
      <point x="1116" y="1168" type="line"/>
      <point x="832" y="1168" type="line"/>
      <point x="623" y="819" type="line"/>
      <point x="409" y="1168" type="line"/>
      <point x="75" y="1168" type="line"/>
      <point x="426" y="596" type="line"/>
      <point x="66" y="0" type="line"/>
      <point x="353" y="0" type="line"/>
      <point x="572" y="359" type="line"/>
    </contour>
  </outline>
</glyph>
<glyph name="braceright" format="1">
  <advance width="1005"/>
  <unicode hex="007D"/>
  <outline>
    <contour>
      <point x="112" y="-253" type="line"/>
      <point x="543" y="-253"/>
      <point x="687" y="-154"/>
      <point x="690" y="314" type="curve" smooth="yes"/>
      <point x="692" y="586"/>
      <point x="735" y="637"/>
      <point x="924" y="637" type="curve"/>
      <point x="924" y="848" type="line"/>
      <point x="735" y="848"/>
      <point x="692" y="899"/>
      <point x="690" y="1171" type="curve" smooth="yes"/>
      <point x="687" y="1639"/>
      <point x="543" y="1737"/>
      <point x="112" y="1737" type="curve"/>
      <point x="112" y="1559" type="line"/>
      <point x="381.306" y="1559"/>
      <point x="400.051" y="1508.32"/>
      <point x="400.051" y="1220.61" type="curve" smooth="yes"/>
      <point x="400.051" y="1211.32"/>
      <point x="400.031" y="1201.79"/>
      <point x="400" y="1192" type="curve" smooth="yes"/>
      <point x="400" y="913"/>
      <point x="440" y="778"/>
      <point x="603" y="742" type="curve"/>
      <point x="440" y="707"/>
      <point x="400" y="572"/>
      <point x="400" y="293" type="curve" smooth="yes"/>
      <point x="400.031" y="283.211"/>
      <point x="400.051" y="273.676"/>
      <point x="400.051" y="264.387" type="curve" smooth="yes"/>
      <point x="400.051" y="-23.3248"/>
      <point x="381.306" y="-74"/>
      <point x="112" y="-74" type="curve"/>
    </contour>
  </outline>
</glyph>
<glyph name="asciitilde" format="1">
  <advance width="1269"/>
  <unicode hex="007E"/>
  <outline>
    <contour>
      <point x="884" y="611" type="curve" smooth="yes"/>
      <point x="893.589" y="610.123"/>
      <point x="902.888" y="609.687"/>
      <point x="911.903" y="609.687" type="curve" smooth="yes"/>
      <point x="1057.07" y="609.687"/>
      <point x="1128.7" y="722.747"/>
      <point x="1156" y="928" type="curve"/>
      <point x="1051" y="969" type="line"/>
      <point x="1012.35" y="881.608"/>
      <point x="982.871" y="833.759"/>
      <point x="909.174" y="833.759" type="curve" smooth="yes"/>
      <point x="895.169" y="833.759"/>
      <point x="879.566" y="835.487"/>
      <point x="862" y="839" type="curve" smooth="yes"/>
      <point x="740.029" y="863.949"/>
      <point x="599.273" y="999.894"/>
      <point x="428.688" y="999.894" type="curve" smooth="yes"/>
      <point x="414.663" y="999.894"/>
      <point x="400.435" y="998.975"/>
      <point x="386" y="997" type="curve" smooth="yes"/>
      <point x="272" y="981"/>
      <point x="178" y="902"/>
      <point x="139" y="708" type="curve"/>
      <point x="229" y="655" type="line"/>
      <point x="260.12" y="750.189"/>
      <point x="304.643" y="785.899"/>
      <point x="375.605" y="785.899" type="curve" smooth="yes"/>
      <point x="382.174" y="785.899"/>
      <point x="388.968" y="785.593"/>
      <point x="396" y="785" type="curve" smooth="yes"/>
      <point x="545" y="772"/>
      <point x="712" y="627"/>
    </contour>
  </outline>
</glyph>
<glyph name="dieresis" format="1">
  <advance width="1150"/>
  <unicode hex="00A8"/>
  <outline>
    <contour>
      <point x="592" y="1168" type="move" name="_top"/>
    </contour>
    <contour>
      <point x="195" y="1450" type="curve" smooth="yes"/>
      <point x="195" y="1358"/>
      <point x="253" y="1315"/>
      <point x="334" y="1315" type="curve" smooth="yes"/>
      <point x="415" y="1315"/>
      <point x="472" y="1358"/>
      <point x="472" y="1450" type="curve" smooth="yes"/>
      <point x="472" y="1541"/>
      <point x="415" y="1585"/>
      <point x="334" y="1585" type="curve" smooth="yes"/>
      <point x="255" y="1585"/>
      <point x="195" y="1540"/>
    </contour>
    <contour>
      <point x="717" y="1450" type="curve" smooth="yes"/>
      <point x="717" y="1358"/>
      <point x="776" y="1315"/>
      <point x="856" y="1315" type="curve" smooth="yes"/>
      <point x="938" y="1315"/>
      <point x="994" y="1358"/>
      <point x="994" y="1450" type="curve" smooth="yes"/>
      <point x="994" y="1541"/>
      <point x="938" y="1585"/>
      <point x="856" y="1585" type="curve" smooth="yes"/>
      <point x="777" y="1585"/>
      <point x="717" y="1540"/>
    </contour>
  </outline>
</glyph>
<glyph name="copyright" format="1">
  <advance width="1942"/>
  <unicode hex="00A9"/>
  <outline>
    <contour>
      <point x="977" y="-98" type="curve" smooth="yes"/>
      <point x="1415" y="-98"/>
      <point x="1808" y="45"/>
      <point x="1808" y="583" type="curve" smooth="yes"/>
      <point x="1808" y="976" type="line" smooth="yes"/>
      <point x="1808" y="1519"/>
      <point x="1437" y="1670"/>
      <point x="970" y="1670" type="curve" smooth="yes"/>
      <point x="530" y="1670"/>
      <point x="131" y="1532"/>
      <point x="131" y="977" type="curve" smooth="yes"/>
      <point x="131" y="583" type="line" smooth="yes"/>
      <point x="131" y="57"/>
      <point x="504" y="-98"/>
    </contour>
    <contour>
      <point x="962" y="29" type="curve" smooth="yes"/>
      <point x="581" y="29"/>
      <point x="297" y="148"/>
      <point x="297" y="582" type="curve" smooth="yes"/>
      <point x="297" y="974" type="line" smooth="yes"/>
      <point x="297" y="1430"/>
      <point x="582" y="1540"/>
      <point x="969" y="1540" type="curve" smooth="yes"/>
      <point x="1331" y="1540"/>
      <point x="1642" y="1440"/>
      <point x="1642" y="992" type="curve" smooth="yes"/>
      <point x="1642" y="563" type="line" smooth="yes"/>
      <point x="1642" y="135"/>
      <point x="1347" y="29"/>
    </contour>
    <contour>
      <point x="953" y="242" type="curve" smooth="yes"/>
      <point x="1267" y="242"/>
      <point x="1353" y="287"/>
      <point x="1353" y="549" type="curve" smooth="yes"/>
      <point x="1353" y="681" type="line"/>
      <point x="1174" y="681" type="line"/>
      <point x="1174" y="495" type="line"/>
      <point x="1172" y="381"/>
      <point x="1125" y="373"/>
      <point x="977" y="373" type="curve" smooth="yes"/>
      <point x="823" y="373"/>
      <point x="767" y="392"/>
      <point x="767" y="486" type="curve" smooth="yes"/>
      <point x="767" y="1113" type="line" smooth="yes"/>
      <point x="767" y="1206"/>
      <point x="811" y="1216"/>
      <point x="977" y="1216" type="curve" smooth="yes"/>
      <point x="1129" y="1216"/>
      <point x="1172" y="1204"/>
      <point x="1174" y="1085" type="curve"/>
      <point x="1174" y="910" type="line"/>
      <point x="1353" y="910" type="line"/>
      <point x="1352" y="1040" type="line"/>
      <point x="1348" y="1318"/>
      <point x="1224" y="1346"/>
      <point x="953" y="1346" type="curve" smooth="yes"/>
      <point x="653" y="1346"/>
      <point x="577" y="1282"/>
      <point x="577" y="976" type="curve" smooth="yes"/>
      <point x="577" y="645" type="line" smooth="yes"/>
      <point x="577" y="299"/>
      <point x="669" y="242"/>
    </contour>
  </outline>
</glyph>
<glyph name="guillemotleft" format="1">
  <advance width="1693"/>
  <unicode hex="00AB"/>
  <outline>
    <contour>
      <point x="1351" y="230" type="curve" smooth="yes"/>
      <point x="1392" y="230"/>
      <point x="1422" y="265"/>
      <point x="1422" y="305" type="curve" smooth="yes"/>
      <point x="1422" y="325"/>
      <point x="1415" y="346"/>
      <point x="1398" y="365" type="curve" smooth="yes"/>
      <point x="1012" y="780" type="line"/>
      <point x="1398" y="1195" type="line"/>
      <point x="1416" y="1217"/>
      <point x="1423" y="1238"/>
      <point x="1423" y="1255" type="curve" smooth="yes"/>
      <point x="1423" y="1296.23"/>
      <point x="1395.42" y="1329.18"/>
      <point x="1357.01" y="1329.18" type="curve" smooth="yes"/>
      <point x="1355.36" y="1329.18"/>
      <point x="1353.69" y="1329.12"/>
      <point x="1352" y="1329" type="curve" smooth="yes"/>
      <point x="1349.64" y="1329.42"/>
      <point x="1347.24" y="1329.62"/>
      <point x="1344.8" y="1329.62" type="curve" smooth="yes"/>
      <point x="1329.68" y="1329.62"/>
      <point x="1313.08" y="1321.78"/>
      <point x="1295" y="1308" type="curve" smooth="yes"/>
      <point x="785" y="921" type="line" smooth="yes"/>
      <point x="734" y="883"/>
      <point x="707" y="833"/>
      <point x="707" y="779" type="curve" smooth="yes"/>
      <point x="707" y="729"/>
      <point x="732" y="678"/>
      <point x="785" y="639" type="curve"/>
      <point x="1295" y="251" type="line" smooth="yes"/>
      <point x="1315" y="236"/>
      <point x="1334" y="230"/>
    </contour>
    <contour>
      <point x="730" y="230" type="curve" smooth="yes"/>
      <point x="770" y="230"/>
      <point x="801" y="265"/>
      <point x="801" y="305" type="curve" smooth="yes"/>
      <point x="801" y="325"/>
      <point x="794" y="346"/>
      <point x="777" y="365" type="curve" smooth="yes"/>
      <point x="391" y="780" type="line"/>
      <point x="777" y="1195" type="line"/>
      <point x="794" y="1217"/>
      <point x="802" y="1238"/>
      <point x="802" y="1255" type="curve" smooth="yes"/>
      <point x="802" y="1296.23"/>
      <point x="773.501" y="1329.18"/>
      <point x="735.013" y="1329.18" type="curve" smooth="yes"/>
      <point x="733.36" y="1329.18"/>
      <point x="731.688" y="1329.12"/>
      <point x="730" y="1329" type="curve" smooth="yes"/>
      <point x="727.637" y="1329.42"/>
      <point x="725.255" y="1329.62"/>
      <point x="722.848" y="1329.62" type="curve" smooth="yes"/>
      <point x="707.938" y="1329.62"/>
      <point x="692.081" y="1321.78"/>
      <point x="674" y="1308" type="curve" smooth="yes"/>
      <point x="163" y="921" type="line" smooth="yes"/>
      <point x="112" y="883"/>
      <point x="86" y="833"/>
      <point x="85" y="779" type="curve" smooth="yes"/>
      <point x="85" y="729"/>
      <point x="110" y="678"/>
      <point x="163" y="639" type="curve" smooth="yes"/>
      <point x="674" y="251" type="line" smooth="yes"/>
      <point x="693" y="237"/>
      <point x="713" y="230"/>
    </contour>
  </outline>
</glyph>
<glyph name="uni00AD" format="1">
  <advance width="1141"/>
  <unicode hex="00AD"/>
  <outline>
    <contour>
      <point x="169" y="553" type="line"/>
      <point x="971" y="553" type="line"/>
      <point x="971" y="787" type="line"/>
      <point x="169" y="787" type="line"/>
    </contour>
  </outline>
</glyph>
<glyph name="registered" format="1">
  <advance width="1925"/>
  <unicode hex="00AE"/>
  <outline>
    <contour>
      <point x="819" y="861" type="line"/>
      <point x="819" y="1215" type="line"/>
      <point x="983" y="1215" type="line" smooth="yes"/>
      <point x="1068" y="1215"/>
      <point x="1122" y="1210"/>
      <point x="1122" y="1106" type="curve" smooth="yes"/>
      <point x="1122" y="975" type="line" smooth="yes"/>
      <point x="1122" y="875"/>
      <point x="1085" y="861"/>
      <point x="961" y="861" type="curve" smooth="yes"/>
    </contour>
    <contour>
      <point x="970" y="-98" type="curve" smooth="yes"/>
      <point x="1409" y="-98"/>
      <point x="1802" y="45"/>
      <point x="1802" y="583" type="curve" smooth="yes"/>
      <point x="1802" y="976" type="line" smooth="yes"/>
      <point x="1802" y="1519"/>
      <point x="1430" y="1670"/>
      <point x="964" y="1670" type="curve" smooth="yes"/>
      <point x="524" y="1670"/>
      <point x="124" y="1532"/>
      <point x="124" y="977" type="curve" smooth="yes"/>
      <point x="124" y="583" type="line" smooth="yes"/>
      <point x="124" y="57"/>
      <point x="497" y="-98"/>
    </contour>
    <contour>
      <point x="956" y="29" type="curve" smooth="yes"/>
      <point x="575" y="29"/>
      <point x="290" y="148"/>
      <point x="290" y="582" type="curve" smooth="yes"/>
      <point x="290" y="974" type="line" smooth="yes"/>
      <point x="290" y="1430"/>
      <point x="575" y="1540"/>
      <point x="962" y="1540" type="curve" smooth="yes"/>
      <point x="1325" y="1540"/>
      <point x="1636" y="1440"/>
      <point x="1636" y="992" type="curve" smooth="yes"/>
      <point x="1636" y="563" type="line" smooth="yes"/>
      <point x="1636" y="135"/>
      <point x="1341" y="29"/>
    </contour>
    <contour>
      <point x="600" y="271" type="line"/>
      <point x="819" y="271" type="line"/>
      <point x="819" y="742" type="line"/>
      <point x="985" y="742" type="line" smooth="yes"/>
      <point x="1086" y="742"/>
      <point x="1124" y="716"/>
      <point x="1123" y="601" type="curve"/>
      <point x="1123" y="272" type="line"/>
      <point x="1339" y="272" type="line"/>
      <point x="1339" y="621" type="line" smooth="yes"/>
      <point x="1339" y="729"/>
      <point x="1292" y="791"/>
      <point x="1189" y="799" type="curve"/>
      <point x="1189" y="815" type="line"/>
      <point x="1290" y="829"/>
      <point x="1345" y="900"/>
      <point x="1345" y="1039" type="curve" smooth="yes"/>
      <point x="1345" y="1081" type="line" smooth="yes"/>
      <point x="1345" y="1311"/>
      <point x="1218" y="1339"/>
      <point x="989" y="1339" type="curve" smooth="yes"/>
      <point x="600" y="1339" type="line"/>
    </contour>
  </outline>
</glyph>
<glyph name="macron" format="1">
  <advance width="1008"/>
  <unicode hex="00AF"/>
  <outline>
    <contour>
      <point x="547" y="1467" type="move" name="_mid"/>
    </contour>
    <contour>
      <point x="547" y="1168" type="move" name="_top"/>
    </contour>
    <contour>
      <point x="211" y="1550" type="line"/>
      <point x="211" y="1386" type="line"/>
      <point x="891" y="1386" type="line"/>
      <point x="891" y="1550" type="line"/>
    </contour>
  </outline>
</glyph>
<glyph name="plusminus" format="1">
  <advance width="1312"/>
  <unicode hex="00B1"/>
  <outline>
    <contour>
      <point x="207" y="0" type="line"/>
      <point x="1100" y="0" type="line"/>
      <point x="1100" y="203" type="line"/>
      <point x="207" y="203" type="line"/>
    </contour>
    <contour>
      <point x="538" y="346" type="line"/>
      <point x="773" y="346" type="line"/>
      <point x="773" y="729" type="line"/>
      <point x="1152" y="729" type="line"/>
      <point x="1152" y="943" type="line"/>
      <point x="773" y="943" type="line"/>
      <point x="773" y="1329" type="line"/>
      <point x="538" y="1329" type="line"/>
      <point x="538" y="943" type="line"/>
      <point x="159" y="943" type="line"/>
      <point x="159" y="729" type="line"/>
      <point x="538" y="729" type="line"/>
    </contour>
  </outline>
</glyph>
<glyph name="paragraph" format="1">
  <advance width="1296"/>
  <unicode hex="00B6"/>
  <outline>
    <contour>
      <point x="583" y="1527" type="line" smooth="yes"/>
      <point x="275" y="1527"/>
      <point x="90" y="1428"/>
      <point x="90" y="1128" type="curve" smooth="yes"/>
      <point x="90" y="869"/>
      <point x="284" y="755"/>
      <point x="604" y="755" type="curve"/>
      <point x="604" y="-148" type="line"/>
      <point x="775" y="-148" type="line"/>
      <point x="775" y="1131" type="line"/>
      <point x="949" y="1131" type="line"/>
      <point x="949" y="-148" type="line"/>
      <point x="1111" y="-148" type="line"/>
      <point x="1111" y="1527" type="line"/>
    </contour>
  </outline>
</glyph>
<glyph name="periodcentered" format="1">
  <advance width="798"/>
  <unicode hex="00B7"/>
  <outline>
    <contour>
      <point x="127" y="829" type="move" name="_mid"/>
    </contour>
    <contour>
      <point x="562" y="673" type="curve" smooth="yes"/>
      <point x="648" y="673"/>
      <point x="711" y="736"/>
      <point x="711" y="834" type="curve" smooth="yes"/>
      <point x="711" y="931"/>
      <point x="645" y="995"/>
      <point x="562" y="995" type="curve" smooth="yes"/>
      <point x="475" y="995"/>
      <point x="412" y="932"/>
      <point x="412" y="834" type="curve" smooth="yes"/>
      <point x="412" y="738"/>
      <point x="480" y="673"/>
    </contour>
  </outline>
</glyph>
<glyph name="onesuperior" format="1">
  <advance width="848"/>
  <unicode hex="00B9"/>
  <outline>
    <contour>
      <point x="332" y="446" type="line"/>
      <point x="591" y="446" type="line"/>
      <point x="591" y="1527" type="line"/>
      <point x="409" y="1527" type="line"/>
      <point x="352" y="1492"/>
      <point x="278" y="1472"/>
      <point x="188" y="1472" type="curve"/>
      <point x="188" y="1341" type="line"/>
      <point x="332" y="1341" type="line"/>
    </contour>
  </outline>
</glyph>
<glyph name="onequarter" format="1">
  <advance width="2434"/>
  <unicode hex="00BC"/>
  <outline>
    <contour>
      <point x="687" y="0" type="line"/>
      <point x="896" y="0" type="line"/>
      <point x="1500" y="1550" type="line"/>
      <point x="1195" y="1550" type="line"/>
    </contour>
    <contour>
      <point x="253" y="487" type="line"/>
      <point x="511" y="487" type="line"/>
      <point x="511" y="1527" type="line"/>
      <point x="329" y="1527" type="line"/>
      <point x="272" y="1492"/>
      <point x="199" y="1472"/>
      <point x="109" y="1472" type="curve"/>
      <point x="109" y="1341" type="line"/>
      <point x="253" y="1341" type="line"/>
    </contour>
    <contour>
      <point x="2032" y="0" type="line"/>
      <point x="2280" y="0" type="line"/>
      <point x="2280" y="669" type="line"/>
      <point x="2032" y="669" type="line"/>
      <point x="2032" y="402" type="line"/>
      <point x="1739" y="402" type="line"/>
      <point x="1739" y="424" type="line"/>
      <point x="2019" y="1081" type="line"/>
      <point x="1771" y="1081" type="line"/>
      <point x="1471" y="416" type="line"/>
      <point x="1471" y="220" type="line"/>
      <point x="2032" y="220" type="line"/>
    </contour>
  </outline>
</glyph>
<glyph name="threequarters" format="1">
  <advance width="2707"/>
  <unicode hex="00BE"/>
  <outline>
    <contour>
      <point x="578" y="452" type="curve" smooth="yes"/>
      <point x="862" y="452"/>
      <point x="983" y="528"/>
      <point x="983" y="774" type="curve" smooth="yes"/>
      <point x="983" y="882"/>
      <point x="963" y="974"/>
      <point x="869" y="1004" type="curve"/>
      <point x="959" y="1033"/>
      <point x="981" y="1108"/>
      <point x="981" y="1216" type="curve" smooth="yes"/>
      <point x="981" y="1463"/>
      <point x="886" y="1540"/>
      <point x="577" y="1540" type="curve" smooth="yes"/>
      <point x="258" y="1540"/>
      <point x="160" y="1457"/>
      <point x="160" y="1194" type="curve" smooth="yes"/>
      <point x="160" y="1158" type="line"/>
      <point x="415" y="1158" type="line"/>
      <point x="416" y="1266" type="line" smooth="yes"/>
      <point x="418" y="1375"/>
      <point x="456" y="1389"/>
      <point x="576" y="1389" type="curve" smooth="yes"/>
      <point x="697" y="1389"/>
      <point x="731" y="1367"/>
      <point x="731" y="1280" type="curve" smooth="yes"/>
      <point x="731" y="1258.22"/>
      <point x="731.471" y="1233.69"/>
      <point x="731.471" y="1209.29" type="curve" smooth="yes"/>
      <point x="731.471" y="1139.59"/>
      <point x="727.63" y="1071"/>
      <point x="698" y="1071" type="curve" smooth="yes"/>
      <point x="466" y="1071" type="line"/>
      <point x="466" y="943" type="line"/>
      <point x="698" y="943" type="line" smooth="yes"/>
      <point x="729.41" y="943"/>
      <point x="731.021" y="829.44"/>
      <point x="731.021" y="756.273" type="curve" smooth="yes"/>
      <point x="731.021" y="747.911"/>
      <point x="731" y="740.077"/>
      <point x="731" y="733" type="curve" smooth="yes"/>
      <point x="731" y="642"/>
      <point x="693" y="610"/>
      <point x="586" y="610" type="curve" smooth="yes"/>
      <point x="443.002" y="610"/>
      <point x="413.897" y="640.807"/>
      <point x="413.897" y="730.383" type="curve" smooth="yes"/>
      <point x="413.897" y="733.516"/>
      <point x="413.932" y="736.722"/>
      <point x="414" y="740" type="curve" smooth="yes"/>
      <point x="415" y="853" type="line"/>
      <point x="160" y="853" type="line"/>
      <point x="160" y="806" type="line" smooth="yes"/>
      <point x="160" y="556"/>
      <point x="258" y="452"/>
    </contour>
    <contour>
      <point x="1025" y="0" type="line"/>
      <point x="1234" y="0" type="line"/>
      <point x="1837" y="1550" type="line"/>
      <point x="1533" y="1550" type="line"/>
    </contour>
    <contour>
      <point x="2305" y="0" type="line"/>
      <point x="2553" y="0" type="line"/>
      <point x="2553" y="669" type="line"/>
      <point x="2305" y="669" type="line"/>
      <point x="2305" y="402" type="line"/>
      <point x="2012" y="402" type="line"/>
      <point x="2012" y="424" type="line"/>
      <point x="2292" y="1081" type="line"/>
      <point x="2044" y="1081" type="line"/>
      <point x="1744" y="416" type="line"/>
      <point x="1744" y="220" type="line"/>
      <point x="2305" y="220" type="line"/>
    </contour>
  </outline>
</glyph>
<glyph name="AE" format="1">
  <advance width="2014"/>
  <unicode hex="00C6"/>
  <outline>
    <contour>
      <point x="1140" y="1527" type="move" name="top"/>
    </contour>
    <contour>
      <point x="686" y="542" type="line"/>
      <point x="1028" y="1253" type="line"/>
      <point x="1028" y="542" type="line"/>
    </contour>
    <contour>
      <point x="61" y="0" type="line"/>
      <point x="433" y="0" type="line"/>
      <point x="618" y="369" type="line"/>
      <point x="1028" y="369" type="line"/>
      <point x="1028" y="0" type="line"/>
      <point x="1922" y="0" type="line"/>
      <point x="1922" y="194" type="line"/>
      <point x="1371" y="194" type="line"/>
      <point x="1371" y="702" type="line"/>
      <point x="1829" y="702" type="line"/>
      <point x="1829" y="898" type="line"/>
      <point x="1371" y="898" type="line"/>
      <point x="1371" y="1334" type="line"/>
      <point x="1909" y="1334" type="line"/>
      <point x="1909" y="1527" type="line"/>
      <point x="837" y="1527" type="line"/>
    </contour>
  </outline>
</glyph>
<glyph name="multiply" format="1">
  <advance width="1131"/>
  <unicode hex="00D7"/>
  <outline>
    <contour>
      <point x="326" y="189" type="curve"/>
      <point x="563" y="447" type="line"/>
      <point x="801" y="189" type="line"/>
      <point x="1000" y="404" type="line"/>
      <point x="765" y="663" type="line"/>
      <point x="1000" y="921" type="line"/>
      <point x="801" y="1137" type="line"/>
      <point x="563" y="878" type="line"/>
      <point x="326" y="1137" type="line"/>
      <point x="283" y="1089"/>
      <point x="144" y="940"/>
      <point x="127" y="921" type="curve"/>
      <point x="263" y="770"/>
      <point x="357" y="668"/>
      <point x="363" y="663" type="curve"/>
      <point x="127" y="404" type="line"/>
      <point x="170" y="357"/>
      <point x="308" y="207"/>
    </contour>
  </outline>
</glyph>
<glyph name="Oslash" format="1">
  <advance width="1735"/>
  <unicode hex="00D8"/>
  <outline>
    <component base="O"/>
    <contour>
      <point x="852" y="1595" type="move" name="top"/>
    </contour>
    <contour>
      <point x="280" y="-163" type="line"/>
      <point x="459" y="123" type="line"/>
      <point x="343" y="202" type="line"/>
      <point x="161" y="-89" type="line"/>
    </contour>
    <contour>
      <point x="1195" y="1320" type="line"/>
      <point x="1408" y="1654" type="line"/>
      <point x="1285" y="1726" type="line"/>
      <point x="1067" y="1384" type="line"/>
    </contour>
  </outline>
</glyph>
<glyph name="germandbls" format="1">
  <advance width="1366"/>
  <unicode hex="00DF"/>
  <outline>
    <contour>
      <point x="917.85" y="500.594" type="curve" smooth="yes"/>
      <point x="917.85" y="326.067"/>
      <point x="905.336" y="172"/>
      <point x="780" y="172" type="curve" smooth="yes"/>
      <point x="581" y="173" type="line"/>
      <point x="581" y="-13" type="line"/>
      <point x="770" y="-13" type="line" smooth="yes"/>
      <point x="1020" y="-13"/>
      <point x="1220" y="56"/>
      <point x="1220" y="336" type="curve" smooth="yes"/>
      <point x="1220" y="500" type="line" smooth="yes"/>
      <point x="1220" y="747"/>
      <point x="1100" y="832"/>
      <point x="950" y="842" type="curve"/>
      <point x="1083" y="860"/>
      <point x="1144" y="960"/>
      <point x="1144" y="1162" type="curve" smooth="yes"/>
      <point x="1144" y="1443"/>
      <point x="1007" y="1531"/>
      <point x="677" y="1531" type="curve" smooth="yes"/>
      <point x="352" y="1531"/>
      <point x="168" y="1463"/>
      <point x="168" y="1162" type="curve" smooth="yes"/>
      <point x="168" y="-192" type="line"/>
      <point x="470" y="-182" type="line"/>
      <point x="470" y="1179" type="line"/>
      <point x="469" y="1337"/>
      <point x="540" y="1344"/>
      <point x="676" y="1344" type="curve" smooth="yes"/>
      <point x="803" y="1344"/>
      <point x="869" y="1322"/>
      <point x="869" y="1216" type="curve" smooth="yes"/>
      <point x="869" y="1122"/>
      <point x="864" y="919"/>
      <point x="806" y="919" type="curve" smooth="yes"/>
      <point x="610" y="919" type="line"/>
      <point x="610" y="742" type="line"/>
      <point x="806" y="741" type="line" smooth="yes"/>
      <point x="901.257" y="741"/>
      <point x="917.85" y="629.495"/>
    </contour>
  </outline>
</glyph>
<glyph name="eth" format="1">
  <advance width="1370"/>
  <unicode hex="00F0"/>
  <outline>
    <contour>
      <point x="688" y="151" type="curve" smooth="yes"/>
      <point x="512" y="151"/>
      <point x="464" y="155"/>
      <point x="464" y="222" type="curve" smooth="yes"/>
      <point x="464" y="754" type="line" smooth="yes"/>
      <point x="464" y="825"/>
      <point x="502" y="835"/>
      <point x="689" y="835" type="curve" smooth="yes"/>
      <point x="855" y="835"/>
      <point x="886" y="794"/>
      <point x="886" y="713" type="curve" smooth="yes"/>
      <point x="886" y="216" type="line" smooth="yes"/>
      <point x="886" y="161"/>
      <point x="862" y="151"/>
    </contour>
    <contour>
      <point x="692" y="-29" type="curve" smooth="yes"/>
      <point x="1107" y="-29"/>
      <point x="1216" y="145"/>
      <point x="1216" y="576" type="curve" smooth="yes"/>
      <point x="1216" y="1043"/>
      <point x="1159" y="1295"/>
      <point x="973" y="1442" type="curve"/>
      <point x="1134" y="1585" type="line"/>
      <point x="1070" y="1668" type="line"/>
      <point x="883" y="1503" type="line"/>
      <point x="770" y="1566"/>
      <point x="624" y="1605"/>
      <point x="427" y="1634" type="curve"/>
      <point x="337" y="1437" type="line"/>
      <point x="511" y="1402"/>
      <point x="615" y="1385"/>
      <point x="688" y="1348" type="curve"/>
      <point x="521" y="1204" type="line"/>
      <point x="585" y="1121" type="line"/>
      <point x="775" y="1284" type="line"/>
      <point x="837" y="1219"/>
      <point x="878" y="1109"/>
      <point x="886" y="914" type="curve"/>
      <point x="874" y="979"/>
      <point x="746" y="1012"/>
      <point x="600" y="1012" type="curve" smooth="yes"/>
      <point x="264" y="1012"/>
      <point x="143" y="876"/>
      <point x="140" y="586" type="curve"/>
      <point x="140" y="431" type="line" smooth="yes"/>
      <point x="140" y="80"/>
      <point x="281" y="-29"/>
    </contour>
  </outline>
</glyph>
<glyph name="Hbar" format="1">
  <advance width="1617"/>
  <unicode hex="0126"/>
  <outline>
    <contour>
      <point x="557" y="876" type="line"/>
      <point x="557" y="1109" type="line"/>
      <point x="1057" y="1109" type="line"/>
      <point x="1057" y="876" type="line"/>
    </contour>
    <contour>
      <point x="214" y="0" type="line"/>
      <point x="557" y="0" type="line"/>
      <point x="557" y="685" type="line"/>
      <point x="1057" y="685" type="line"/>
      <point x="1057" y="0" type="line"/>
      <point x="1401" y="0" type="line"/>
      <point x="1401" y="1109" type="line"/>
      <point x="1488" y="1109" type="line"/>
      <point x="1488" y="1245" type="line"/>
      <point x="1401" y="1245" type="line"/>
      <point x="1401" y="1527" type="line"/>
      <point x="1057" y="1527" type="line"/>
      <point x="1057" y="1245" type="line"/>
      <point x="557" y="1245" type="line"/>
      <point x="557" y="1527" type="line"/>
      <point x="214" y="1527" type="line"/>
      <point x="214" y="1245" type="line"/>
      <point x="129" y="1245" type="line"/>
      <point x="129" y="1109" type="line"/>
      <point x="214" y="1109" type="line"/>
    </contour>
  </outline>
</glyph>
<glyph name="Lslash" format="1">
  <advance width="1094"/>
  <unicode hex="0141"/>
  <outline>
    <contour>
      <point x="43" y="561" type="line"/>
      <point x="791" y="900" type="line"/>
      <point x="791" y="1144" type="line"/>
      <point x="43" y="805" type="line"/>
    </contour>
    <component base="L"/>
  </outline>
</glyph>
<glyph name="Eng" format="1">
  <advance width="1539"/>
  <unicode hex="014A"/>
  <outline>
    <contour>
      <point x="806" y="-482" type="line"/>
      <point x="1225" y="-482"/>
      <point x="1369" y="-368"/>
      <point x="1369" y="-22" type="curve" smooth="yes"/>
      <point x="1369" y="1527" type="line"/>
      <point x="1098" y="1527" type="line"/>
      <point x="1098" y="524" type="line"/>
      <point x="482" y="1527" type="line"/>
      <point x="167" y="1527" type="line"/>
      <point x="167" y="0" type="line"/>
      <point x="440" y="0" type="line"/>
      <point x="440" y="1014" type="line"/>
      <point x="1075" y="28" type="line"/>
      <point x="1075" y="-158" type="line" smooth="yes"/>
      <point x="1060" y="-233"/>
      <point x="1022" y="-277"/>
      <point x="812" y="-277" type="curve"/>
    </contour>
  </outline>
</glyph>
<glyph name="oe" format="1">
  <advance width="2020"/>
  <unicode hex="0153"/>
  <outline>
    <contour>
      <point x="1186" y="698" type="line"/>
      <point x="1187" y="740"/>
      <point x="1185" y="918"/>
      <point x="1197" y="962" type="curve" smooth="yes"/>
      <point x="1210" y="1011"/>
      <point x="1253" y="1024"/>
      <point x="1381" y="1024" type="curve" smooth="yes"/>
      <point x="1492" y="1024"/>
      <point x="1556" y="1011"/>
      <point x="1560" y="957" type="curve" smooth="yes"/>
      <point x="1564" y="908"/>
      <point x="1566" y="743"/>
      <point x="1567" y="698" type="curve"/>
    </contour>
    <contour>
      <point x="663" y="157" type="curve" smooth="yes"/>
      <point x="548" y="157"/>
      <point x="468" y="169"/>
      <point x="468" y="216" type="curve" smooth="yes"/>
      <point x="468" y="961" type="line" smooth="yes"/>
      <point x="468" y="1022"/>
      <point x="585" y="1022"/>
      <point x="663" y="1022" type="curve" smooth="yes"/>
      <point x="740" y="1022"/>
      <point x="857" y="1022"/>
      <point x="857" y="961" type="curve" smooth="yes"/>
      <point x="857" y="216" type="line" smooth="yes"/>
      <point x="857" y="168"/>
      <point x="778" y="157"/>
    </contour>
    <contour>
      <point x="1388" y="-21" type="curve" smooth="yes"/>
      <point x="1717" y="-21"/>
      <point x="1874" y="38"/>
      <point x="1877" y="283" type="curve" smooth="yes"/>
      <point x="1877" y="294"/>
      <point x="1877" y="364"/>
      <point x="1876" y="378" type="curve"/>
      <point x="1576" y="383" type="line"/>
      <point x="1569" y="204" type="line"/>
      <point x="1566" y="166"/>
      <point x="1503" y="146"/>
      <point x="1392" y="146" type="curve" smooth="yes"/>
      <point x="1262" y="146"/>
      <point x="1193" y="159"/>
      <point x="1190" y="217" type="curve" smooth="yes"/>
      <point x="1186" y="285"/>
      <point x="1186" y="495"/>
      <point x="1185" y="569" type="curve"/>
      <point x="1891" y="569" type="line"/>
      <point x="1894" y="743" type="line"/>
      <point x="1891" y="1126"/>
      <point x="1731" y="1189"/>
      <point x="1382" y="1189" type="curve" smooth="yes"/>
      <point x="1224" y="1189"/>
      <point x="1095" y="1158"/>
      <point x="1023" y="1082" type="curve"/>
      <point x="957" y="1159"/>
      <point x="826" y="1189"/>
      <point x="663" y="1189" type="curve" smooth="yes"/>
      <point x="293" y="1189"/>
      <point x="133" y="1126"/>
      <point x="133" y="714" type="curve" smooth="yes"/>
      <point x="133" y="484" type="line" smooth="yes"/>
      <point x="133" y="61"/>
      <point x="268" y="-21"/>
      <point x="662" y="-21" type="curve" smooth="yes"/>
      <point x="826" y="-21"/>
      <point x="960" y="11"/>
      <point x="1027" y="89" type="curve"/>
      <point x="1100" y="10"/>
      <point x="1229" y="-21"/>
    </contour>
  </outline>
</glyph>
<glyph name="florin" format="1">
  <advance width="935"/>
  <unicode hex="0192"/>
  <outline>
    <contour>
      <point x="325" y="-319" type="curve" smooth="yes"/>
      <point x="511" y="-315"/>
      <point x="538" y="-222"/>
      <point x="538" y="-56" type="curve" smooth="yes"/>
      <point x="538" y="757" type="line"/>
      <point x="736" y="757" type="line"/>
      <point x="736" y="887" type="line"/>
      <point x="538" y="887" type="line"/>
      <point x="537" y="1256" type="line" smooth="yes"/>
      <point x="537" y="1372"/>
      <point x="537" y="1392"/>
      <point x="668" y="1392" type="curve" smooth="yes"/>
      <point x="694" y="1392"/>
      <point x="720" y="1391"/>
      <point x="746" y="1389" type="curve"/>
      <point x="746" y="1543" type="line"/>
      <point x="683" y="1555"/>
      <point x="623" y="1561"/>
      <point x="570" y="1561" type="curve" smooth="yes"/>
      <point x="408" y="1561"/>
      <point x="339" y="1484"/>
      <point x="340" y="1259" type="curve" smooth="yes"/>
      <point x="341" y="887" type="line"/>
      <point x="179" y="887" type="line"/>
      <point x="179" y="757" type="line"/>
      <point x="341" y="757" type="line"/>
      <point x="341" y="-167" type="line"/>
      <point x="173" y="-167" type="line"/>
      <point x="173" y="-299" type="line"/>
      <point x="263" y="-315"/>
      <point x="297" y="-319"/>
    </contour>
  </outline>
</glyph>
<glyph name="caron" format="1">
  <advance width="982"/>
  <unicode hex="02C7"/>
  <outline>
    <contour>
      <point x="536" y="1168" type="move" name="_top"/>
    </contour>
    <contour>
      <point x="251.02" y="1810.4" type="curve" smooth="yes"/>
      <point x="223.533" y="1810.4"/>
      <point x="201.574" y="1789.84"/>
      <point x="201.574" y="1763.17" type="curve" smooth="yes"/>
      <point x="201.574" y="1752.47"/>
      <point x="204.935" y="1741.04"/>
      <point x="212" y="1730" type="curve" smooth="yes"/>
      <point x="429" y="1386" type="line"/>
      <point x="457" y="1344"/>
      <point x="498" y="1327"/>
      <point x="540" y="1327" type="curve" smooth="yes"/>
      <point x="582" y="1327"/>
      <point x="622" y="1343"/>
      <point x="651" y="1386" type="curve"/>
      <point x="868" y="1730" type="line" smooth="yes"/>
      <point x="874.931" y="1741.55"/>
      <point x="878.446" y="1753.74"/>
      <point x="878.446" y="1765" type="curve" smooth="yes"/>
      <point x="878.446" y="1791.47"/>
      <point x="856.625" y="1810.76"/>
      <point x="830.035" y="1810.76" type="curve" smooth="yes"/>
      <point x="818.004" y="1810.76"/>
      <point x="805.707" y="1806.74"/>
      <point x="796" y="1798" type="curve" smooth="yes"/>
      <point x="540" y="1562" type="line"/>
      <point x="284" y="1798" type="line" smooth="yes"/>
      <point x="274.452" y="1806.59"/>
      <point x="262.624" y="1810.4"/>
    </contour>
  </outline>
</glyph>
<glyph name="dotaccent" format="1">
  <advance width="685"/>
  <unicode hex="02D9"/>
  <outline>
    <contour>
      <point x="371" y="1168" type="move" name="_top"/>
    </contour>
    <contour>
      <point x="371" y="1412" type="curve" smooth="yes"/>
      <point x="478" y="1412"/>
      <point x="555" y="1457"/>
      <point x="555" y="1571" type="curve" smooth="yes"/>
      <point x="555" y="1682"/>
      <point x="478" y="1728"/>
      <point x="371" y="1728" type="curve" smooth="yes"/>
      <point x="265" y="1728"/>
      <point x="188" y="1684"/>
      <point x="188" y="1571" type="curve" smooth="yes"/>
      <point x="188" y="1459"/>
      <point x="264" y="1412"/>
    </contour>
  </outline>
</glyph>
<glyph name="mu" format="1">
  <advance width="1341"/>
  <unicode hex="03BC"/>
  <outline>
    <contour>
      <point x="850" y="1168" type="line"/>
      <point x="850" y="331" type="line" smooth="yes"/>
      <point x="850" y="235"/>
      <point x="841" y="161"/>
      <point x="664" y="161" type="curve" smooth="yes"/>
      <point x="539" y="161"/>
      <point x="487" y="180"/>
      <point x="484" y="268" type="curve"/>
      <point x="484" y="1168" type="line"/>
      <point x="155" y="1168" type="line"/>
      <point x="155" y="-309" type="line"/>
      <point x="484" y="-309" type="line"/>
      <point x="484" y="-3" type="line"/>
      <point x="504.821" y="-5.78857"/>
      <point x="529.03" y="-7.43664"/>
      <point x="554.961" y="-7.43664" type="curve" smooth="yes"/>
      <point x="668.516" y="-7.43664"/>
      <point x="815.109" y="24.1676"/>
      <point x="855" y="130" type="curve"/>
      <point x="880" y="-1" type="line"/>
      <point x="1179" y="-1" type="line"/>
      <point x="1179" y="1168" type="line"/>
    </contour>
  </outline>
</glyph>
<glyph name="emdash" format="1">
  <advance width="1834"/>
  <unicode hex="2014"/>
  <outline>
    <contour>
      <point x="122" y="538" type="line"/>
      <point x="1705" y="538" type="line"/>
      <point x="1705" y="813" type="line"/>
      <point x="122" y="813" type="line"/>
    </contour>
  </outline>
</glyph>
<glyph name="quoteright" format="1">
  <advance width="708"/>
  <unicode hex="2019"/>
  <outline>
    <contour>
      <point x="199" y="997" type="line"/>
      <point x="394" y="997"/>
      <point x="530" y="1174"/>
      <point x="530" y="1364" type="curve" smooth="yes"/>
      <point x="530" y="1485"/>
      <point x="474" y="1579"/>
      <point x="369" y="1579" type="curve" smooth="yes"/>
      <point x="262" y="1579"/>
      <point x="194" y="1505"/>
      <point x="194" y="1422" type="curve" smooth="yes"/>
      <point x="194" y="1311"/>
      <point x="253" y="1254"/>
      <point x="342" y="1251" type="curve"/>
      <point x="340" y="1156"/>
      <point x="283" y="1079"/>
      <point x="199" y="1079" type="curve"/>
    </contour>
  </outline>
</glyph>
<glyph name="quotesinglbase" format="1">
  <advance width="623"/>
  <unicode hex="201A"/>
  <outline>
    <contour>
      <point x="338" y="-302" type="curve" smooth="yes"/>
      <point x="354" y="-235"/>
      <point x="434" y="97"/>
      <point x="434" y="188" type="curve" smooth="yes"/>
      <point x="434" y="282"/>
      <point x="380" y="330"/>
      <point x="309" y="330" type="curve" smooth="yes"/>
      <point x="229" y="330"/>
      <point x="188" y="284"/>
      <point x="188" y="179" type="curve" smooth="yes"/>
      <point x="188" y="91"/>
      <point x="267" y="-230"/>
      <point x="283" y="-298" type="curve" smooth="yes"/>
      <point x="287" y="-312"/>
      <point x="303" y="-321"/>
      <point x="311" y="-321" type="curve" smooth="yes"/>
      <point x="318" y="-321"/>
      <point x="335" y="-316"/>
    </contour>
  </outline>
</glyph>
<glyph name="quotedblright" format="1">
  <advance width="1135"/>
  <unicode hex="201D"/>
  <outline>
    <contour>
      <point x="657" y="997" type="line" smooth="yes"/>
      <point x="657.582" y="996.997"/>
      <point x="658.163" y="996.996"/>
      <point x="658.743" y="996.996" type="curve" smooth="yes"/>
      <point x="865.693" y="996.996"/>
      <point x="989" y="1174.53"/>
      <point x="989" y="1364" type="curve" smooth="yes"/>
      <point x="989" y="1485"/>
      <point x="932" y="1579"/>
      <point x="828" y="1579" type="curve" smooth="yes"/>
      <point x="719" y="1579"/>
      <point x="652" y="1503"/>
      <point x="652" y="1422" type="curve" smooth="yes"/>
      <point x="652" y="1311"/>
      <point x="711" y="1254"/>
      <point x="801" y="1251" type="curve"/>
      <point x="799" y="1154"/>
      <point x="741" y="1079"/>
      <point x="657" y="1079" type="curve"/>
    </contour>
    <contour>
      <point x="169" y="997" type="line" smooth="yes"/>
      <point x="169.582" y="996.997"/>
      <point x="170.163" y="996.996"/>
      <point x="170.743" y="996.996" type="curve" smooth="yes"/>
      <point x="377.704" y="996.996"/>
      <point x="503" y="1174.53"/>
      <point x="503" y="1364" type="curve"/>
      <point x="503" y="1484"/>
      <point x="443" y="1579"/>
      <point x="340" y="1579" type="curve" smooth="yes"/>
      <point x="232" y="1579"/>
      <point x="165" y="1505"/>
      <point x="165" y="1422" type="curve" smooth="yes"/>
      <point x="165" y="1311"/>
      <point x="223" y="1254"/>
      <point x="313" y="1251" type="curve"/>
      <point x="311" y="1156"/>
      <point x="253" y="1079"/>
      <point x="169" y="1079" type="curve"/>
    </contour>
  </outline>
</glyph>
<glyph name="guilsinglleft" format="1">
  <advance width="963"/>
  <unicode hex="2039"/>
  <outline>
    <contour>
      <point x="767" y="230" type="curve" smooth="yes"/>
      <point x="808" y="230"/>
      <point x="838" y="265"/>
      <point x="838" y="305" type="curve" smooth="yes"/>
      <point x="838" y="325"/>
      <point x="831" y="346"/>
      <point x="814" y="365" type="curve" smooth="yes"/>
      <point x="428" y="780" type="line"/>
      <point x="814" y="1195" type="line" smooth="yes"/>
      <point x="833" y="1215"/>
      <point x="839" y="1238"/>
      <point x="839" y="1255" type="curve" smooth="yes"/>
      <point x="839" y="1296.23"/>
      <point x="811.42" y="1329.18"/>
      <point x="773.008" y="1329.18" type="curve" smooth="yes"/>
      <point x="771.358" y="1329.18"/>
      <point x="769.688" y="1329.12"/>
      <point x="768" y="1329" type="curve" smooth="yes"/>
      <point x="765.637" y="1329.42"/>
      <point x="763.235" y="1329.62"/>
      <point x="760.795" y="1329.62" type="curve" smooth="yes"/>
      <point x="745.679" y="1329.62"/>
      <point x="729.081" y="1321.78"/>
      <point x="711" y="1308" type="curve" smooth="yes"/>
      <point x="200" y="921" type="line" smooth="yes"/>
      <point x="150" y="883"/>
      <point x="123" y="833"/>
      <point x="123" y="779" type="curve" smooth="yes"/>
      <point x="123" y="729"/>
      <point x="148" y="678"/>
      <point x="200" y="639" type="curve" smooth="yes"/>
      <point x="711" y="251" type="line" smooth="yes"/>
      <point x="731" y="236"/>
      <point x="750" y="230"/>
    </contour>
  </outline>
</glyph>
<glyph name="foursuperior" format="1">
  <advance width="1212"/>
  <unicode hex="2074"/>
  <outline>
    <contour>
      <point x="763" y="446" type="line"/>
      <point x="1010" y="446" type="line"/>
      <point x="1010" y="1115" type="line"/>
      <point x="763" y="1115" type="line"/>
      <point x="763" y="848" type="line"/>
      <point x="469" y="848" type="line"/>
      <point x="469" y="870" type="line"/>
      <point x="750" y="1527" type="line"/>
      <point x="501" y="1527" type="line"/>
      <point x="201" y="861" type="line"/>
      <point x="201" y="665" type="line"/>
      <point x="763" y="665" type="line"/>
    </contour>
  </outline>
</glyph>
<glyph name="emptyset" format="1">
  <advance width="1759"/>
  <unicode hex="2205"/>
  <outline>
    <contour>
      <point x="877" y="109" type="curve" smooth="yes"/>
      <point x="753" y="109"/>
      <point x="640" y="142"/>
      <point x="548" y="204" type="curve"/>
      <point x="1304" y="1095" type="line"/>
      <point x="1400" y="988"/>
      <point x="1458" y="846"/>
      <point x="1458" y="695" type="curve" smooth="yes"/>
      <point x="1458" y="382"/>
      <point x="1207" y="109"/>
    </contour>
    <contour>
      <point x="461" y="276" type="line"/>
      <point x="360" y="378"/>
      <point x="300" y="524"/>
      <point x="300" y="695" type="curve" smooth="yes"/>
      <point x="300" y="1037"/>
      <point x="549" y="1285"/>
      <point x="878" y="1285" type="curve" smooth="yes"/>
      <point x="1006" y="1285"/>
      <point x="1123" y="1243"/>
      <point x="1217" y="1174" type="curve"/>
    </contour>
    <contour>
      <point x="307" y="-81" type="line"/>
      <point x="457" y="97" type="line"/>
      <point x="577" y="18"/>
      <point x="722" y="-25"/>
      <point x="878" y="-25" type="curve" smooth="yes"/>
      <point x="1279" y="-25"/>
      <point x="1607" y="297"/>
      <point x="1607" y="696" type="curve" smooth="yes"/>
      <point x="1607" y="895"/>
      <point x="1526" y="1073"/>
      <point x="1397" y="1204" type="curve"/>
      <point x="1548" y="1382" type="line"/>
      <point x="1458" y="1460" type="line"/>
      <point x="1307" y="1281" type="line"/>
      <point x="1186" y="1367"/>
      <point x="1038" y="1419"/>
      <point x="878" y="1419" type="curve" smooth="yes"/>
      <point x="479" y="1419"/>
      <point x="151" y="1127"/>
      <point x="151" y="696" type="curve" smooth="yes"/>
      <point x="151" y="474"/>
      <point x="234" y="292"/>
      <point x="369" y="167" type="curve"/>
      <point x="224" y="-6" type="line"/>
    </contour>
  </outline>
</glyph>
<glyph name="product" format="1">
  <advance width="1508"/>
  <unicode hex="220F"/>
  <outline>
    <contour>
      <point x="512" y="1312" type="line"/>
      <point x="995" y="1312" type="line"/>
      <point x="995" y="-49" type="line"/>
      <point x="1357" y="-49" type="line"/>
      <point x="1357" y="1527" type="line"/>
      <point x="151" y="1527" type="line"/>
      <point x="151" y="-49" type="line"/>
      <point x="512" y="-49" type="line"/>
    </contour>
  </outline>
</glyph>
<glyph name="summation" format="1">
  <advance width="1344"/>
  <unicode hex="2211"/>
  <outline>
    <contour>
      <point x="166" y="-12" type="line"/>
      <point x="1205" y="-12" type="line"/>
      <point x="1205" y="206" type="line"/>
      <point x="517" y="206" type="line"/>
      <point x="991" y="699" type="line"/>
      <point x="991" y="802" type="line"/>
      <point x="513" y="1318" type="line"/>
      <point x="1188" y="1318" type="line"/>
      <point x="1188" y="1527" type="line"/>
      <point x="166" y="1527" type="line"/>
      <point x="166" y="1314" type="line"/>
      <point x="667" y="771" type="line"/>
      <point x="166" y="224" type="line"/>
    </contour>
  </outline>
</glyph>
<glyph name="infinity" format="1">
  <advance width="1671"/>
  <unicode hex="221E"/>
  <outline>
    <contour>
      <point x="1203" y="509" type="curve" smooth="yes"/>
      <point x="1073" y="509"/>
      <point x="946" y="632"/>
      <point x="891" y="809" type="curve"/>
      <point x="951" y="889"/>
      <point x="1066" y="942"/>
      <point x="1177" y="942" type="curve" smooth="yes"/>
      <point x="1264" y="942"/>
      <point x="1408" y="894"/>
      <point x="1408" y="719" type="curve" smooth="yes"/>
      <point x="1408" y="612"/>
      <point x="1340" y="509"/>
    </contour>
    <contour>
      <point x="471" y="516" type="curve" smooth="yes"/>
      <point x="330" y="516"/>
      <point x="260" y="622"/>
      <point x="260" y="729" type="curve" smooth="yes"/>
      <point x="260" y="834"/>
      <point x="329" y="939"/>
      <point x="467" y="939" type="curve" smooth="yes"/>
      <point x="571" y="939"/>
      <point x="681" y="836"/>
      <point x="733" y="689" type="curve"/>
      <point x="677" y="587"/>
      <point x="569" y="516"/>
    </contour>
    <contour>
      <point x="1593" y="738" type="curve" smooth="yes"/>
      <point x="1593" y="952.273"/>
      <point x="1469.13" y="1170.07"/>
      <point x="1215.81" y="1170.07" type="curve" smooth="yes"/>
      <point x="1071.71" y="1170.07"/>
      <point x="913.51" y="1081.85"/>
      <point x="824" y="953" type="curve"/>
      <point x="762" y="1074"/>
      <point x="617" y="1159"/>
      <point x="471" y="1159" type="curve" smooth="yes"/>
      <point x="207" y="1159"/>
      <point x="75" y="945"/>
      <point x="75" y="732" type="curve" smooth="yes"/>
      <point x="75" y="516"/>
      <point x="208" y="300"/>
      <point x="473" y="300" type="curve" smooth="yes"/>
      <point x="615" y="300"/>
      <point x="750" y="395"/>
      <point x="797" y="533" type="curve"/>
      <point x="872" y="393"/>
      <point x="1039" y="296"/>
      <point x="1207" y="296" type="curve" smooth="yes"/>
      <point x="1207.57" y="295.998"/>
      <point x="1208.15" y="295.997"/>
      <point x="1208.72" y="295.997" type="curve" smooth="yes"/>
      <point x="1464.58" y="295.997"/>
      <point x="1593" y="518.492"/>
    </contour>
  </outline>
</glyph>
<glyph name="integral" format="1">
  <advance width="1097"/>
  <unicode hex="222B"/>
  <outline>
    <contour>
      <point x="313" y="-304" type="curve" smooth="yes"/>
      <point x="494" y="-304"/>
      <point x="610" y="-255"/>
      <point x="635" y="36" type="curve" smooth="yes"/>
      <point x="748" y="1343" type="line" smooth="yes"/>
      <point x="760" y="1479"/>
      <point x="775" y="1504"/>
      <point x="860" y="1504" type="curve" smooth="yes"/>
      <point x="890" y="1504"/>
      <point x="931" y="1492"/>
      <point x="962" y="1475" type="curve"/>
      <point x="1031" y="1623" type="line"/>
      <point x="987" y="1648"/>
      <point x="904" y="1674"/>
      <point x="848" y="1674" type="curve" smooth="yes"/>
      <point x="667" y="1674"/>
      <point x="552" y="1625"/>
      <point x="527" y="1334" type="curve" smooth="yes"/>
      <point x="413" y="27" type="line" smooth="yes"/>
      <point x="401" y="-109"/>
      <point x="386" y="-134"/>
      <point x="301" y="-134" type="curve" smooth="yes"/>
      <point x="271" y="-134"/>
      <point x="230" y="-123"/>
      <point x="199" y="-105" type="curve"/>
      <point x="130" y="-254" type="line"/>
      <point x="174" y="-278"/>
      <point x="257" y="-304"/>
    </contour>
  </outline>
</glyph>
<glyph name="lozenge" format="1">
  <advance width="1143"/>
  <unicode hex="25CA"/>
  <outline>
    <contour>
      <point x="573" y="253" type="line"/>
      <point x="308" y="738" type="line"/>
      <point x="573" y="1216" type="line"/>
      <point x="841" y="738" type="line"/>
    </contour>
    <contour>
      <point x="468" y="0" type="line"/>
      <point x="663" y="0" type="line"/>
      <point x="1085" y="738" type="line"/>
      <point x="663" y="1467" type="line"/>
      <point x="468" y="1467" type="line"/>
      <point x="57" y="738" type="line"/>
    </contour>
  </outline>
</glyph>
